<?xml version="1.0" encoding="UTF-8"?>
<svg id="Camada_2" data-name="Camada 2" xmlns="http://www.w3.org/2000/svg" viewBox="0 0 617.63 100.18">
  <defs>
    <style>
      .cls-1 {
        fill: none;
        stroke: #000;
        stroke-miterlimit: 10;
        stroke-width: 1.3px;
      }

      .cls-2 {
        fill: #000;
        stroke-width: 0px;
      }
    </style>
  </defs>
  <g id="Camada_1-2" data-name="Camada 1">
    <g>
      <path class="cls-2" d="M260.19,97.71c26.23,0,47.5-21.26,47.5-47.5S286.43,2.72,260.19,2.72s-47.5,21.26-47.5,47.5,21.27,47.5,47.5,47.5M260.19,94.67c-24.52,0-44.46-19.94-44.46-44.46s19.95-44.46,44.46-44.46,44.46,19.95,44.46,44.46-19.95,44.46-44.46,44.46"/>
      <path class="cls-1" d="M152.81,0l.33,46.44M148.78.19l4.07,46.26M144.77.71l7.78,45.78M140.83,1.55l11.44,45.01M136.96,2.69l15.03,43.94M133.2,4.15l18.51,42.59M129.56,5.91l21.88,40.96M126.08,7.95l25.11,39.07M122.78,10.26l28.17,36.92M119.67,12.84l31.05,34.54M116.78,15.65l33.73,31.93M114.13,18.69l36.19,29.11M111.73,21.93l38.42,26.1M109.6,25.36l40.39,22.93M107.75,28.94l42.11,19.61M106.19,32.66l43.55,16.16M104.94,36.5l44.71,12.6M104,40.42l45.58,8.96M103.39,44.41l46.15,5.27M103.09,48.43l46.43,1.54M103.12,52.47l46.4-2.2M103.47,56.48l46.07-5.93M104.15,60.46l45.45-9.61M105.14,64.37l44.53-13.24M106.45,68.19l43.32-16.78M108.06,71.88l41.82-20.21M109.96,75.44l40.06-23.51M112.14,78.84l38.04-26.65M114.58,82.05l35.77-29.63M117.28,85.04l33.27-32.41M120.21,87.82l30.55-34.98M123.35,90.35l27.64-37.32M126.69,92.62l24.55-39.43M130.2,94.6l21.29-41.27M133.86,96.31l17.9-42.85M137.64,97.71l14.39-44.15M141.53,98.81l10.79-45.17M145.48,99.58l7.12-45.89M149.49,100.04l3.41-46.31M153.52,100.18l-.33-46.44M157.56,99.98l-4.07-46.26M161.56,99.47l-7.78-45.78M165.51,98.63l-11.44-45.01M169.37,97.49l-15.03-43.94M173.14,96.03l-18.51-42.59M176.77,94.27l-21.88-40.96M180.25,92.23l-25.11-39.07M183.55,89.92l-28.17-36.92M186.66,87.34l-31.05-34.54M189.55,84.53l-33.73-31.93M192.2,81.49l-36.19-29.11M194.6,78.25l-38.42-26.11M196.73,74.82l-40.39-22.93M198.59,71.24l-42.11-19.61M200.14,67.52l-43.55-16.16M201.39,63.68l-44.71-12.6M202.33,59.76l-45.58-8.96M202.95,55.77l-46.15-5.27M203.24,51.75l-46.43-1.54M203.21,47.71l-46.4,2.2M202.86,43.7l-46.07,5.93M202.18,39.72l-45.45,9.61M201.19,35.81l-44.53,13.24M199.89,31.99l-43.32,16.78M198.28,28.29l-41.82,20.21M196.38,24.74l-40.06,23.51M194.2,21.34l-38.04,26.65M191.75,18.14l-35.77,29.63M189.05,15.14l-33.27,32.41M186.12,12.36l-30.55,34.98M182.98,9.83l-27.64,37.32M179.64,7.57l-24.54,39.43M176.13,5.57l-21.29,41.27M172.47,3.87l-17.9,42.85M168.69,2.47l-14.39,44.15M164.81,1.37l-10.79,45.17M160.85.59l-7.12,45.89M156.84.14l-3.41,46.31"/>
      <path class="cls-2" d="M47.5,31.54c10.31,0,18.67,8.36,18.67,18.67s-8.36,18.67-18.67,18.67-18.67-8.36-18.67-18.67,8.36-18.67,18.67-18.67M47.5,97.71c26.23,0,47.5-21.26,47.5-47.5S73.73,2.72,47.5,2.72,0,23.98,0,50.21s21.26,47.5,47.5,47.5"/>
      <path class="cls-2" d="M375.95,45.59v6.36l-13.44-4.05c7.32,0,13.2.77,17.63,2.31,4.43,1.54,7.68,3.9,9.75,7.08,2.07,3.18,3.11,7.28,3.11,12.28,0,4.62-1.04,8.7-3.11,12.21-2.07,3.52-5.32,6.29-9.75,8.31-4.43,2.02-10.21,3.04-17.34,3.04h-34.54v-14.02h33.67c5.01,0,8.67-1.13,10.98-3.4,2.31-2.26,3.47-4.99,3.47-8.17,0-2.41-.51-4.48-1.52-6.21-1.01-1.73-2.63-3.08-4.84-4.05-2.22-.96-5.06-1.44-8.52-1.44h-31.36v-12.43h28.18c3.08,0,5.68-.39,7.8-1.16,2.12-.77,3.78-2.02,4.98-3.76,1.21-1.73,1.81-4.05,1.81-6.94,0-3.56-1.11-6.31-3.33-8.24-2.21-1.93-5.78-2.89-10.69-2.89h-29.48V6.44h29.48c10.31,0,17.92,1.88,22.83,5.63,4.91,3.76,7.37,9.25,7.37,16.47,0,4.91-1.04,9.06-3.11,12.43-2.07,3.37-5.18,5.9-9.32,7.58-4.14,1.69-9.3,2.58-15.46,2.67l14.74-5.64ZM322.63,6.44h16.33v86.71h-16.33V6.44Z"/>
      <path class="cls-2" d="M565.08,50.84l27.33-32.98c2.1-2.54,2.65-4.84,1.64-6.9-1.01-2.06-3.09-3.39-6.24-4.01l.39-.52h24.3l.53.52c-4.29.96-7.62,2.9-10.55,4.95-2.93,2.06-5.71,4.66-8.34,7.82l-16.29,20.49,27.82,40.44c2.19,3.07,4.14,5.65,5.85,7.75,1.71,2.1,3.74,3.5,6.11,4.2l-.39.53h-31.92l-.39-.53c2.8-.87,4.22-2.34,4.27-4.4.04-2.06-.94-4.58-2.96-7.56l-21.15-29.82ZM572.3,92.62l-.39.53h-31.13l-.39-.53c2.1-.7,3.76-1.82,4.99-3.35,1.23-1.53,2.1-3.85,2.63-6.96.52-3.11.79-7.2.79-12.28V29.56c0-5.08-.26-9.17-.79-12.28-.53-3.1-1.4-5.45-2.63-7.03-1.23-1.58-2.89-2.67-4.99-3.29l.39-.52h31.66l.39.52c-1.93.61-3.48,1.71-4.67,3.29-1.18,1.57-2.01,3.92-2.49,7.03-.48,3.11-.72,7.21-.72,12.28v40.46c0,5.08.17,9.15.52,12.22.35,3.07,1.05,5.39,2.1,6.96,1.05,1.58,2.63,2.72,4.73,3.42"/>
      <path class="cls-2" d="M497.61,95c-6.6,0-12.51-1.05-17.72-3.16-5.22-2.1-9.57-5.09-13.06-8.96-3.49-3.88-6.15-8.58-7.96-14.13-1.82-5.55-2.73-11.86-2.73-18.94,0-9.18,1.67-17.1,5.02-23.74,3.34-6.65,8.18-11.79,14.49-15.42,6.31-3.63,13.77-5.45,22.38-5.45,7.46,0,13.92,1.31,19.37,3.94,5.45,2.63,9.8,6.39,13.06,11.26,3.25,4.88,5.36,10.76,6.31,17.65l-15.64,3.01c-1.24-6.89-3.73-12.2-7.46-15.93-3.73-3.73-9.09-5.6-16.07-5.6-5.84,0-10.62,1.32-14.35,3.95-3.73,2.63-6.48,6.22-8.25,10.76-1.77,4.55-2.65,9.73-2.65,15.57,0,6.41.91,11.91,2.73,16.5,1.82,4.59,4.57,8.16,8.25,10.69,3.68,2.54,8.39,3.8,14.14,3.8,4.97,0,9.04-.86,12.19-2.58,3.16-1.72,5.72-4.23,7.68-7.53,1.96-3.3,3.37-7.34,4.23-12.12l15.64,2.87c-1.05,6.98-3.23,12.96-6.53,17.93-3.3,4.97-7.75,8.82-13.34,11.55-5.6,2.73-12.17,4.09-19.73,4.09"/>
      <path class="cls-2" d="M418.97,93.14v-2.94h9.45c6.19-.01,8.42-1.2,12.01-3.04,3.59-1.84,6.85-4.23,9.79-8.09,2.93-3.85,5.7-8.1,7.63-14.06l.79.4-6.04,27.72h-33.63ZM421.05,93.14h-24.17l-.39-.53c2.1-.7,3.76-1.82,4.99-3.35,1.23-1.53,2.1-3.85,2.63-6.96.53-3.11.79-7.2.79-12.28V29.55c0-5.08-.26-9.17-.79-12.28-.53-3.11-1.4-5.45-2.63-7.03-1.23-1.58-2.89-2.67-4.99-3.29l.39-.52h32.19l.39.52c-2.1.61-3.77,1.71-4.99,3.29-1.23,1.58-2.1,3.92-2.63,7.03-.53,3.11-.79,7.21-.79,12.28v63.59Z"/>
    </g>
  </g>
</svg>